<?xml version="1.0" encoding="UTF-8" standalone="no"?>
<svg
   xmlns:dc="http://purl.org/dc/elements/1.1/"
   xmlns:cc="http://creativecommons.org/ns#"
   xmlns:rdf="http://www.w3.org/1999/02/22-rdf-syntax-ns#"
   xmlns:svg="http://www.w3.org/2000/svg"
   xmlns="http://www.w3.org/2000/svg"
   xmlns:sodipodi="http://sodipodi.sourceforge.net/DTD/sodipodi-0.dtd"
   xmlns:inkscape="http://www.inkscape.org/namespaces/inkscape"
   width="36px"
   height="36px"
   viewBox="0 0 36 36"
   version="1.1"
   id="svg2"
   inkscape:version="0.91 r13725"
   sodipodi:docname="butterfly.svg">
  <metadata
     id="metadata15">
    <rdf:RDF>
      <cc:Work
         rdf:about="">
        <dc:format>image/svg+xml</dc:format>
        <dc:type
           rdf:resource="http://purl.org/dc/dcmitype/StillImage" />
        <dc:title>BG</dc:title>
      </cc:Work>
    </rdf:RDF>
  </metadata>
  <sodipodi:namedview
     pagecolor="#ffffff"
     bordercolor="#666666"
     borderopacity="1"
     objecttolerance="10"
     gridtolerance="10"
     guidetolerance="10"
     inkscape:pageopacity="0"
     inkscape:pageshadow="2"
     inkscape:window-width="1316"
     inkscape:window-height="739"
     id="namedview13"
     showgrid="false"
     inkscape:zoom="6.5555556"
     inkscape:cx="18"
     inkscape:cy="18"
     inkscape:window-x="50"
     inkscape:window-y="0"
     inkscape:window-maximized="1"
     inkscape:current-layer="svg2" />
  <!-- Generator: Sketch 3.8.2 (29753) - http://www.bohemiancoding.com/sketch -->
  <title
     id="title4">BG</title>
  <desc
     id="desc6">Created with Sketch.</desc>
  <defs
     id="defs8" />
  <g
     id="Symbols"
     stroke="none"
     stroke-width="1"
     fill="none"
     fill-rule="evenodd">
    <g
       id="Header"
       transform="translate(-7.000000, -7.000000)"
       fill="#2CE6CE">
      <rect
         id="BG"
         x="7"
         y="7"
         width="36"
         height="36"
         rx="3" />
    </g>
  </g>
  <g
     id="Symbols-1"
     style="fill:none;fill-rule:evenodd;stroke:none;stroke-width:1"
     transform="translate(6.1525419,9.0345384)">
    <g
       transform="translate(-13,-16)"
       id="Header-7"
       style="fill:#ffffff">
      <path
         id="Fill-1"
         d="m 32.611961,16.989565 c -0.558838,0 -1.06821,0.122421 -1.481465,0.271478 -1.980581,0.714346 -3.718801,2.738767 -4.428515,5.157418 -0.319123,1.088062 -0.579186,2.946222 -0.665046,4.806201 1.578575,-0.118451 3.090646,-0.426324 4.31271,-0.92362 -0.332523,-1.022054 -1.137196,-1.91937 -2.292756,-2.468613 -0.24749,-0.117624 -0.352871,-0.413751 -0.235248,-0.661407 0.117624,-0.24749 0.413587,-0.352871 0.661407,-0.235247 1.369301,0.650819 2.337258,1.710922 2.772681,2.932987 2.280845,-1.251346 4.608011,-3.679262 4.745487,-5.800959 0.06369,-0.983507 -0.38083,-1.803731 -1.321325,-2.437511 -0.707066,-0.476616 -1.420751,-0.640727 -2.06793,-0.640727 M 19.26438,26.483681 c 1.260445,0.445515 2.790714,0.704255 4.367304,0.776053 -0.01175,-1.677009 -0.152862,-3.470483 -0.414083,-5.029372 -0.428309,-2.555465 -2.63322,-4.323794 -4.628193,-4.94285 -1.621754,-0.503251 -3.069471,-0.307542 -3.872159,0.524097 -0.778369,0.806161 -0.789949,1.890419 -0.662399,2.657869 0.355188,2.139233 2.148331,4.534558 4.171429,5.572163 0.03904,0.02002 0.07858,0.0397 0.118451,0.05923 0.418715,-1.358382 1.412479,-2.468778 2.874258,-3.141765 0.248979,-0.114315 0.543783,-0.0055 0.658263,0.243354 0.114647,0.249144 0.0056,0.543783 -0.243188,0.658429 -1.237119,0.569591 -2.051222,1.486428 -2.369683,2.622797 m -0.149222,0.998397 c -0.0074,0.24567 0.0053,0.49862 0.03838,0.75769 0.303738,2.368359 1.598758,4.426198 2.617669,4.861787 0.31234,0.133671 0.570914,0.111999 0.814268,-0.06733 0.641555,-0.472646 0.978214,-2.426261 1.03744,-4.777085 -1.609677,-0.07097 -3.177334,-0.329545 -4.507758,-0.77506 m 6.892826,0.744124 c -0.02151,2.022271 0.193062,3.878776 0.796732,4.543161 0.516155,0.567274 0.850498,0.482406 0.960512,0.454283 1.004518,-0.256589 2.096716,-2.728511 2.656547,-5.037644 0.07163,-0.295797 0.103561,-0.592255 0.09777,-0.884909 -1.310241,0.501597 -2.88286,0.810132 -4.511562,0.925109 m 1.602894,6.009737 c -0.432611,0 -0.974409,-0.176353 -1.540525,-0.799048 -0.809471,-0.890203 -1.080949,-2.971368 -1.064571,-5.164533 -0.130528,0.003 -0.260725,0.0046 -0.391252,0.005 -0.04913,2.461169 -0.410609,4.797268 -1.440273,5.555951 -0.524758,0.386785 -1.161515,0.451139 -1.793474,0.180985 -1.475841,-0.631298 -2.8865,-3.112153 -3.211744,-5.648097 -0.05559,-0.433769 -0.0627,-0.855627 -0.02349,-1.2621 -0.127384,-0.05757 -0.251791,-0.117293 -0.372227,-0.17933 -2.276378,-1.167306 -4.295836,-3.872655 -4.697842,-6.29263 -0.23624,-1.423067 0.08454,-2.636694 0.927756,-3.510022 1.068541,-1.106757 2.892952,-1.399079 4.880481,-0.78267 2.118058,0.657271 4.780559,2.551495 5.312762,5.726843 0.186775,1.11387 0.397704,3.138953 0.422023,5.213832 0.137972,-4.97e-4 0.275945,-0.0025 0.413586,-0.0058 0.09066,-2.041461 0.39605,-4.039578 0.717489,-5.135251 0.807982,-2.753987 2.740918,-4.980899 5.044096,-5.811877 1.566664,-0.564793 3.143585,-0.39423 4.441087,0.479926 1.236292,0.833293 1.843933,1.983062 1.75708,3.324901 -0.170894,2.637025 -2.941756,5.416158 -5.504666,6.737813 0.05674,0.506561 0.02564,1.028341 -0.100584,1.549956 -0.297286,1.2262 -1.419262,5.265943 -3.375855,5.765389 -0.118286,0.03044 -0.252784,0.05079 -0.399855,0.05079"
         inkscape:connector-curvature="0" />
    </g>
  </g>
</svg>
