<?xml version="1.0" encoding="UTF-8" standalone="no"?>
<svg width="97px" height="100px" viewBox="0 0 97 100" version="1.1" xmlns="http://www.w3.org/2000/svg" xmlns:xlink="http://www.w3.org/1999/xlink">
    <!-- Generator: Sketch 3.8.2 (29753) - http://www.bohemiancoding.com/sketch -->
    <title>BFEmailPollSmiley</title>
    <desc>Created with Sketch.</desc>
    <defs></defs>
    <g id="Mood-Feedback-Verticals" stroke="none" stroke-width="1" fill="none" fill-rule="evenodd">
        <g id="Group-2" transform="translate(-52.000000, 0.000000)">
            <g id="BFEmailPollSmiley" transform="translate(52.000000, 0.000000)">
                <g id="Mask-+-Smiley">
                    <ellipse id="Oval-1" fill-opacity="0.1" fill="#000000" cx="48.4848485" cy="51.5151515" rx="48.1000481" ry="48.1000481"></ellipse>
                    <ellipse id="Oval-1-Copy-3" fill="#FFFFFF" cx="48.4848485" cy="48.5088985" rx="48.1000481" ry="48.1000481"></ellipse>
                    <path d="M69.2069505,62.3496873 C68.9574315,62.7344877 62.9389129,71.7772968 49.025974,71.7772968 C35.2362915,71.7772968 28.6871693,62.8908129 28.4151034,62.512025 C27.1058802,60.6932419 27.5207431,58.1574675 29.3410293,56.8482443 C31.1507937,55.5465368 33.6670274,55.9493747 34.9822631,57.7441077 C35.2077321,58.0417268 39.5923521,63.6604137 49.025974,63.6604137 C58.4235209,63.6604137 62.357203,57.9951299 62.3947811,57.9365079 C63.6138167,56.0545936 66.1270443,55.5194805 68.0074555,56.737013 C69.8893699,57.9560486 70.4259861,60.4692761 69.2069505,62.3496873 M33.76924,31.6393098 C37.0460558,31.6393098 39.7035835,34.2953343 39.7035835,37.5721501 C39.7035835,40.8489658 37.0460558,43.5064935 33.76924,43.5064935 C30.4924242,43.5064935 27.8363997,40.8489658 27.8363997,37.5721501 C27.8363997,34.2953343 30.4924242,31.6393098 33.76924,31.6393098 M63.5326479,31.6393098 C66.8079606,31.6393098 69.4654882,34.2953343 69.4654882,37.5721501 C69.4654882,40.8489658 66.8079606,43.5064935 63.5326479,43.5064935 C60.2558321,43.5064935 57.5983045,40.8489658 57.5983045,37.5721501 C57.5983045,34.2953343 60.2558321,31.6393098 63.5326479,31.6393098 M48.4848485,3.41510342 C23.5810486,3.41510342 3.39105339,23.6050986 3.39105339,48.5088985 C3.39105339,73.4126984 23.5810486,93.6026936 48.4848485,93.6026936 C73.3886484,93.6026936 93.5786436,73.4126984 93.5786436,48.5088985 C93.5786436,23.6050986 73.3886484,3.41510342 48.4848485,3.41510342" id="BFSmileyRecap" fill="#AEEB7E"></path>
                </g>
            </g>
        </g>
    </g>
</svg>