<?xml version="1.0" encoding="UTF-8" standalone="no"?>
<svg width="97px" height="100px" viewBox="0 0 97 100" version="1.1" xmlns="http://www.w3.org/2000/svg" xmlns:xlink="http://www.w3.org/1999/xlink">
    <!-- Generator: Sketch 3.8.2 (29753) - http://www.bohemiancoding.com/sketch -->
    <title>BFEmailPollSmiley</title>
    <desc>Created with Sketch.</desc>
    <defs></defs>
    <g id="Mood-Feedback-Verticals" stroke="none" stroke-width="1" fill="none" fill-rule="evenodd">
        <g id="Group-2" transform="translate(-52.000000, 0.000000)">
            <g id="BFEmailPollSmiley" transform="translate(52.000000, 0.000000)">
                <g id="Mask-+-Smiley">
                    <ellipse id="Oval-1" fill-opacity="0.1" fill="#000000" cx="48.4848485" cy="51.5151515" rx="48.1000481" ry="48.1000481"></ellipse>
                    <ellipse id="Oval-1-Copy-3" fill="#FFFFFF" cx="48.4848485" cy="48.5088985" rx="48.1000481" ry="48.1000481"></ellipse>
                    <path d="M26.8851178,72.0655051 C26.8851178,60.0789731 36.5927104,50.2380303 48.5702525,50.2380303 C58.6778956,50.2380303 67.1718519,56.9849495 69.5736532,66.3958754 C69.6620539,66.6550842 69.7234848,67.0266667 69.7579461,67.2918687 C70.0815825,68.7916835 70.2538889,70.5671886 70.2538889,72.0655051 L26.8851178,72.0655051 Z M33.81633,31.6693939 C37.0841582,31.6693939 39.7301852,34.3169192 39.7301852,37.5832492 C39.7301852,40.8495791 37.0841582,43.4986027 33.81633,43.4986027 C30.55,43.4986027 27.9024747,40.8495791 27.9024747,37.5832492 C27.9024747,34.3169192 30.55,31.6693939 33.81633,31.6693939 L33.81633,31.6693939 Z M63.4844949,31.6693939 C66.7493266,31.6693939 69.3968519,34.3169192 69.3968519,37.5832492 C69.3968519,40.8495791 66.7493266,43.4986027 63.4844949,43.4986027 C60.2166667,43.4986027 57.5691414,40.8495791 57.5691414,37.5832492 C57.5691414,34.3169192 60.2166667,31.6693939 63.4844949,31.6693939 L63.4844949,31.6693939 Z M48.4848485,3.53550505 C23.6607407,3.53550505 3.53535354,23.6593939 3.53535354,48.485 C3.53535354,73.3091077 23.6607407,93.4344949 48.4848485,93.4344949 C73.3089562,93.4344949 93.4343434,73.3091077 93.4343434,48.485 C93.4343434,23.6593939 73.3089562,3.53550505 48.4848485,3.53550505 L48.4848485,3.53550505 Z" id="Fill-12" fill="#F45D6F"></path>
                </g>
            </g>
        </g>
    </g>
</svg>