<?xml version="1.0" encoding="UTF-8" standalone="no"?>
<svg width="97px" height="100px" viewBox="0 0 97 100" version="1.1" xmlns="http://www.w3.org/2000/svg" xmlns:xlink="http://www.w3.org/1999/xlink">
    <!-- Generator: Sketch 3.8.2 (29753) - http://www.bohemiancoding.com/sketch -->
    <title>BFEmailPollSmiley</title>
    <desc>Created with Sketch.</desc>
    <defs></defs>
    <g id="Mood-Feedback-Verticals" stroke="none" stroke-width="1" fill="none" fill-rule="evenodd">
        <g id="Group-2" transform="translate(-52.000000, 0.000000)">
            <g id="BFEmailPollSmiley" transform="translate(52.000000, 0.000000)">
                <g id="Mask-+-Smiley">
                    <ellipse id="Oval-1" fill-opacity="0.1" fill="#000000" cx="48.4848485" cy="51.5151515" rx="48.1000481" ry="48.1000481"></ellipse>
                    <ellipse id="Oval-1-Copy-3" fill="#FFFFFF" cx="48.4848485" cy="48.5088985" rx="48.1000481" ry="48.1000481"></ellipse>
                    <path d="M48.694228,77.2930568 C36.7181842,77.2930568 27.0090933,67.5944541 27.0090933,55.6079221 L70.3793627,55.6079221 C70.3793627,67.5944541 60.6702718,77.2930568 48.694228,77.2930568 M33.6960798,31.6932924 C36.9639081,31.6932924 39.6114334,34.3408177 39.6114334,37.6071477 C39.6114334,40.8734776 36.9639081,43.5225012 33.6960798,43.5225012 C30.4312482,43.5225012 27.7822246,40.8734776 27.7822246,37.6071477 C27.7822246,34.3408177 30.4312482,31.6932924 33.6960798,31.6932924 M63.3642448,31.6932924 C66.6305748,31.6932924 69.2781,34.3408177 69.2781,37.6071477 C69.2781,40.8734776 66.6305748,43.5225012 63.3642448,43.5225012 C60.0979149,43.5225012 57.4503896,40.8734776 57.4503896,37.6071477 C57.4503896,34.3408177 60.0979149,31.6932924 63.3642448,31.6932924 M48.3645984,3.55940356 C23.5404906,3.55940356 3.41510342,23.6847908 3.41510342,48.5088985 C3.41510342,73.3330063 23.5404906,93.4583935 48.3645984,93.4583935 C73.1902044,93.4583935 93.3140933,73.3330063 93.3140933,48.5088985 C93.3140933,23.6847908 73.1902044,3.55940356 48.3645984,3.55940356" id="Fill-9" fill="#34EB7E"></path>
                </g>
            </g>
        </g>
    </g>
</svg>