<?xml version="1.0" encoding="UTF-8" standalone="no"?>
<svg width="97px" height="100px" viewBox="0 0 97 100" version="1.1" xmlns="http://www.w3.org/2000/svg" xmlns:xlink="http://www.w3.org/1999/xlink">
    <!-- Generator: Sketch 3.8.2 (29753) - http://www.bohemiancoding.com/sketch -->
    <title>BFEmailPollSmiley</title>
    <desc>Created with Sketch.</desc>
    <defs></defs>
    <g id="Mood-Feedback-Verticals" stroke="none" stroke-width="1" fill="none" fill-rule="evenodd">
        <g id="Group-2" transform="translate(-52.000000, 0.000000)">
            <g id="BFEmailPollSmiley" transform="translate(52.000000, 0.000000)">
                <g id="Mask-+-Smiley">
                    <ellipse id="Oval-1" fill-opacity="0.1" fill="#000000" cx="48.4848485" cy="51.5151515" rx="48.1000481" ry="48.1000481"></ellipse>
                    <ellipse id="Oval-1-Copy-3" fill="#FFFFFF" cx="48.4848485" cy="48.5088985" rx="48.1000481" ry="48.1000481"></ellipse>
                    <path d="M65.8855387,67.570404 L31.9022222,67.570404 C29.6682323,67.570404 27.858266,65.3109428 27.858266,63.0754545 C27.858266,60.8414646 29.6682323,58.5805051 31.9022222,58.5805051 L65.8855387,58.5805051 C68.1195286,58.5805051 69.9309933,60.8414646 69.9309933,63.0754545 C69.9309933,65.3109428 68.1195286,67.570404 65.8855387,67.570404 M33.9564141,31.6692424 C37.2227441,31.6692424 39.8717677,34.3167677 39.8717677,37.5830976 C39.8717677,40.8494276 37.2227441,43.4984512 33.9564141,43.4984512 C30.6915825,43.4984512 28.0425589,40.8494276 28.0425589,37.5830976 C28.0425589,34.3167677 30.6915825,31.6692424 33.9564141,31.6692424 M63.6230808,31.6692424 C66.8909091,31.6692424 69.5384343,34.3167677 69.5384343,37.5830976 C69.5384343,40.8494276 66.8909091,43.4984512 63.6230808,43.4984512 C60.3582492,43.4984512 57.7092256,40.8494276 57.7092256,37.5830976 C57.7092256,34.3167677 60.3582492,31.6692424 63.6230808,31.6692424 M48.6249327,3.53535354 C23.7993266,3.53535354 3.67393939,23.6592424 3.67393939,48.4848485 C3.67393939,73.3089562 23.7993266,93.4343434 48.6249327,93.4343434 C73.4505387,93.4343434 93.5729293,73.3089562 93.5729293,48.4848485 C93.5729293,23.6592424 73.4505387,3.53535354 48.6249327,3.53535354" id="Fill-1" fill="#FFAC73"></path>
                </g>
            </g>
        </g>
    </g>
</svg>