<?xml version="1.0" encoding="UTF-8" standalone="no"?>
<svg width="97px" height="100px" viewBox="0 0 97 100" version="1.1" xmlns="http://www.w3.org/2000/svg" xmlns:xlink="http://www.w3.org/1999/xlink">
    <!-- Generator: Sketch 3.8.2 (29753) - http://www.bohemiancoding.com/sketch -->
    <title>BFEmailPollSmiley</title>
    <desc>Created with Sketch.</desc>
    <defs></defs>
    <g id="Mood-Feedback-Verticals" stroke="none" stroke-width="1" fill="none" fill-rule="evenodd">
        <g id="Group-2" transform="translate(-52.000000, 0.000000)">
            <g id="BFEmailPollSmiley" transform="translate(52.000000, 0.000000)">
                <g id="Mask-+-Smiley">
                    <ellipse id="Oval-1" fill-opacity="0.1" fill="#000000" cx="48.4848485" cy="51.5151515" rx="48.1000481" ry="48.1000481"></ellipse>
                    <ellipse id="Oval-1-Copy-3" fill="#FFFFFF" cx="48.4848485" cy="48.5088985" rx="48.1000481" ry="48.1000481"></ellipse>
                    <path d="M67.9880495,70.9176431 C66.1840765,72.2151852 63.672898,71.8136364 62.3633694,70.0246465 C62.1386219,69.7279798 57.7680327,64.1272727 48.3645984,64.1272727 C39.0540596,64.1272727 35.1734199,69.6395791 35.0101034,69.8748148 C34.2414671,71.0644781 32.9559115,71.7057576 31.6403896,71.7057576 C30.8822415,71.7057576 30.1166017,71.4929966 29.4303728,71.0494949 C27.5559788,69.8343603 27.0330664,67.3081987 28.2496994,65.4338047 C28.4969216,65.0502357 34.4946825,56.0363636 48.3645984,56.0363636 C62.1101539,56.0363636 68.6398172,64.8944108 68.9095142,65.2704882 C70.2145479,67.0849495 69.8010125,69.6126094 67.9880495,70.9176431 M33.6960798,31.6692424 C36.9639081,31.6692424 39.6114334,34.3167677 39.6114334,37.5830976 C39.6114334,40.8494276 36.9639081,43.4984512 33.6960798,43.4984512 C30.4312482,43.4984512 27.7822246,40.8494276 27.7822246,37.5830976 C27.7822246,34.3167677 30.4312482,31.6692424 33.6960798,31.6692424 M63.3642448,31.6692424 C66.6305748,31.6692424 69.2766017,34.3167677 69.2766017,37.5830976 C69.2766017,40.8494276 66.6305748,43.4984512 63.3642448,43.4984512 C60.0964165,43.4984512 57.4488913,40.8494276 57.4488913,37.5830976 C57.4488913,34.3167677 60.0964165,31.6692424 63.3642448,31.6692424 M48.3645984,3.53535354 C23.5404906,3.53535354 3.41510342,23.6592424 3.41510342,48.4848485 C3.41510342,73.3089562 23.5404906,93.4343434 48.3645984,93.4343434 C73.1902044,93.4343434 93.3140933,73.3089562 93.3140933,48.4848485 C93.3140933,23.6592424 73.1902044,3.53535354 48.3645984,3.53535354" id="Fill-6" fill="#F98371"></path>
                </g>
            </g>
        </g>
    </g>
</svg>